<svg class="svg-icon" style="width: 1em; height: 1em;vertical-align: middle;fill: currentColor;overflow: hidden;" viewBox="0 0 1024 1024" version="1.1" xmlns="http://www.w3.org/2000/svg"><path d="M794.879923 375.445934h66.948561v32.817295c0 94.96996-77.000346 171.972305-171.972305 171.972305h-66.948562v-32.817295c0.002-94.97196 77.002346-171.972305 171.972306-171.972305z" fill="#B0BD58" /><path d="M622.909617 580.235534h-66.948561c-94.96996 0-171.972305-77.000346-171.972306-171.972305v-32.817295h66.948562c94.96996 0 171.972305 77.000346 171.972305 171.972305v32.817295zM332.79185 17.065633h580.235534v273.052134H332.79185z" fill="#B0BD58" /><path d="M793.003963 17.065633c0.357992 5.647879 0.563988 11.331757 0.563988 17.065634 0 104.101763-62.034667 196.665775-158.336599 255.9865h277.796032V17.065633h-120.023421z" fill="#939E49" /><path d="M911.183424 799.136831c-43.245071-87.940111-155.998648-150.638764-288.273807-150.638764a353.112414 353.112414 0 0 0-238.646873 85.328167v136.525067h526.92068v-71.21447z" fill="#8C6239" /><path d="M622.909617 153.5907m-51.1969 0a51.1969 51.1969 0 1 0 102.3938 0 51.1969 51.1969 0 1 0-102.3938 0Z" fill="#F5F1C3" /><path d="M315.726217 923.614157l150.912758 62.664653a278.836009 278.836009 0 0 0 204.651603 2.251952l263.632336-100.51784c23.703491-9.249801 35.429239-35.957227 26.195437-59.662719-0.051999-0.119997-0.085998-0.221995-0.135997-0.341992-8.873809-23.141503-34.831252-34.711254-57.972755-25.837445l-1.279972 0.511989-142.686935 60.582698a88.284103 88.284103 0 0 1-24.64347 6.05787c23.005506-5.13589 37.477195-27.9374 32.357305-50.924906-4.333907-19.437582-21.537537-33.277285-41.45311-33.381283h-132.379156a103.429778 103.429778 0 0 1-46.213007-10.905765 381.501804 381.501804 0 0 0-170.656333-40.293135h-60.326704v189.795923z" fill="#F2C09A" /><path d="M546.779253 774.015371a103.361779 103.361779 0 0 0 46.197007 10.905765h132.327157c23.567494 0 42.665083 19.09559 42.665084 42.665084a42.36509 42.36509 0 0 1-3.651922 16.945636 42.669083 42.669083 0 0 0-39.013162-25.479453h-132.327157a103.361779 103.361779 0 0 1-46.197007-10.905766 381.501804 381.501804 0 0 0-170.656334-40.293134h-60.394702V733.724236h60.378703c59.250727 0 117.683472 13.789704 170.672333 40.291135z" fill="#E9937C" /><path d="M961.032353 827.892213a46.269006 46.269006 0 0 1-0.101998 34.01127c-8.993807-23.089504-35.001248-34.523258-58.090752-25.529452-0.357992 0.135997-0.715985 0.289994-1.057977 0.425991l-142.668935 60.582698a88.984088 88.984088 0 0 1-34.797252 7.099848H520.513817v-34.233265h203.799622a88.966089 88.966089 0 0 0 34.797252-7.081848l142.668935-60.582698c22.851509-9.591794 49.148944 1.159975 58.722738 24.011484 0.187996 0.425991 0.359992 0.851982 0.529989 1.295972z" fill="#E9937C" /><path d="M179.19915 716.760601h136.525067v238.920867H179.19915z" fill="#55A9DB" /><path d="M42.674083 733.826234h136.525067v204.7896H42.674083z" fill="#DEDAD8" /><path d="M913.027384 290.117767h-85.328167c0-47.118988 38.209179-85.328167 85.328167-85.328167v85.328167zM913.027384 17.065633v85.328167c-47.118988 0-85.328167-38.209179-85.328167-85.328167h85.328167zM332.79185 17.065633h85.328167c0 47.118988-38.209179 85.328167-85.328167 85.328167V17.065633zM332.79185 290.117767v-85.328167c47.118988 0 85.328167 38.209179 85.328167 85.328167h-85.328167z" fill="#F5F1C3" /><path d="M942.890743 786.883094a62.146665 62.146665 0 0 0-21.519538-4.589901c-48.056968-86.55814-158.096603-145.296878-281.225958-150.34877v-34.643256h49.728931c104.339758-0.119997 188.899942-84.680181 189.01994-189.019939v-32.835294a17.071633 17.071633 0 0 0-17.065634-17.065634h-66.966561a188.771944 188.771944 0 0 0-154.718676 80.772265v-131.969165h272.880137a17.071633 17.071633 0 0 0 17.065634-17.065633V17.065633A17.071633 17.071633 0 0 0 913.023384 0H332.79185a17.071633 17.071633 0 0 0-17.065633 17.065633v273.052134a17.071633 17.071633 0 0 0 17.065633 17.065633h273.052134v132.19116a188.811943 188.811943 0 0 0-154.888672-80.99426h-66.966562a17.071633 17.071633 0 0 0-17.065633 17.065634v32.835294c0.119997 104.339758 84.680181 188.899942 189.019939 189.019939h49.900928v34.847252a367.824098 367.824098 0 0 0-227.777107 84.612182h-45.275027a17.071633 17.071633 0 0 0-17.065633-17.065634H179.19915a17.071633 17.071633 0 0 0-17.065633 17.065634H42.674083v34.131267h119.459434v170.658333H42.674083v34.131267h119.459434a17.071633 17.071633 0 0 0 17.065633 17.065633h136.525067a17.071633 17.071633 0 0 0 17.065633-17.065633V949.179607l127.413263 52.902864a295.415653 295.415653 0 0 0 217.179334 2.389949l263.632336-100.499841a62.096666 62.096666 0 0 0 34.847251-33.227286 63.134644 63.134644 0 0 0 1.005979-48.994948 62.256662 62.256662 0 0 0-33.97727-34.867251zM349.857484 189.259934V117.923466c42.869079-7.321843 76.454357-40.907121 83.792199-83.792199h378.517868c7.321843 42.887079 40.907121 76.472357 83.7922 83.792199v71.334468c-42.887079 7.321843-76.472357 40.907121-83.7922 83.7922H433.649683c-7.337842-42.885079-40.923121-76.470357-83.792199-83.7902z m497.329315 83.7922a68.116537 68.116537 0 0 1 48.772952-48.772952v48.772952h-48.772952z m48.774952-190.145915a68.116537 68.116537 0 0 1-48.772952-48.772952h48.772952v48.772952zM398.630436 34.131267a68.116537 68.116537 0 0 1-48.772952 48.772952V34.131267h48.772952z m-48.772952 190.145915a68.116537 68.116537 0 0 1 48.772952 48.772952h-48.772952v-48.772952z m445.006439 168.234385h49.900928v15.769661c-0.101998 85.500163-69.388509 154.786675-154.888673 154.888673h-19.181587l150.706762-123.317351-21.605536-26.417432-159.65057 130.655193c1.84396-84.168192 70.532485-151.458746 154.718676-151.578744z m-393.809539 15.769661v-15.769661h49.900928c84.186191 0.119997 152.874716 67.410552 154.718675 151.578744l-159.684569-130.655193-21.605536 26.417432 150.740762 123.317351h-19.181588c-85.500163-0.103998-154.802674-69.390509-154.888672-154.888673z m221.855233 257.282473c113.777556 0 216.991338 49.490937 263.92233 124.903316l-102.3938 43.501066c0.307993-2.081955 0.511989-4.18191 0.597987-6.279865 0-32.987291-26.741425-59.730717-59.730717-59.730717h-132.379156a87.01813 87.01813 0 0 1-38.585171-9.095805 400.589394 400.589394 0 0 0-124.903316-38.329176 351.86044 351.86044 0 0 1 193.471843-54.968819zM298.660583 938.615834H196.266783V733.826234h102.3938v204.7896z m645.988122-81.660245a28.213394 28.213394 0 0 1-15.803661 15.119675l-263.632336 100.51784a261.076391 261.076391 0 0 1-192.023874-2.081955l-140.398984-58.312747v-161.304534h43.261071a366.212132 366.212132 0 0 1 163.028497 38.501172 121.067399 121.067399 0 0 0 53.842843 12.697728h132.379156c14.129696 0.085998 25.529452 11.603751 25.445454 25.751446a25.59345 25.59345 0 0 1-19.795575 24.779468c-2.235952 0.203996-4.437905 0.665986-6.705856 0.665986H520.513817v34.131266H725.303417c0.341993 0 0.665986-0.101998 1.023978-0.101997a105.557732 105.557732 0 0 0 39.387154-8.327822l142.686935-60.582698a27.099418 27.099418 0 0 1 21.281542 0 28.293392 28.293392 0 0 1 15.35967 15.905658 29.347369 29.347369 0 0 1-0.393991 22.641514z" fill="" /><path d="M230.39805 870.351301h34.131267v34.131267h-34.131267zM691.172151 153.5907c0-37.69919-30.565343-68.262533-68.262534-68.262533-37.69919 0-68.262533 30.565343-68.262533 68.262533s30.565343 68.262533 68.262533 68.262534c37.69719 0.002 68.262533-30.563343 68.262534-68.262534z m-102.393801 0c0-18.857595 15.273672-34.131267 34.131267-34.131267s34.131267 15.273672 34.131267 34.131267-15.273672 34.131267-34.131267 34.131267-34.131267-15.273672-34.131267-34.131267z" fill="" /></svg>