<svg class="svg-icon" style="width: 1em;height: 1em;vertical-align: middle;fill: currentColor;overflow: hidden;" viewBox="0 0 1024 1024" version="1.1" xmlns="http://www.w3.org/2000/svg"><path d="M960 736c-22.4-72-94.4-112-164.8-94.4-49.6 17.6-116.8 35.2-169.6 52.8 0-12.8-4.8-27.2-9.6-40-17.6-44.8-67.2-67.2-107.2-67.2h-160c-9.6 0-22.4-4.8-35.2-17.6-17.6-17.6-44.8-27.2-72-27.2H116.8c-67.2 4.8-116.8 59.2-116.8 126.4v209.6c0 62.4 52.8 116.8 116.8 116.8H272c17.6 0 40-4.8 57.6-17.6 44.8 27.2 97.6 35.2 152 35.2 32 0 67.2-4.8 94.4-12.8l294.4-89.6c94.4-32 107.2-116.8 89.6-174.4zM116.8 905.6c-12.8 0-27.2-12.8-27.2-32V664c0-12.8 12.8-27.2 27.2-27.2h129.6c4.8 0 9.6 0 9.6 4.8 4.8 4.8 9.6 4.8 12.8 9.6v254.4H116.8z m726.4-76.8l-294.4 89.6c-57.6 17.6-124.8 12.8-182.4-17.6l-9.6-9.6V681.6h156.8c9.6 0 22.4 4.8 22.4 9.6 4.8 4.8-4.8 17.6-9.6 22.4-12.8 22.4-35.2 35.2-35.2 67.2 0 12.8 9.6 32 22.4 35.2 17.6 4.8 35.2 0 52.8-4.8 40-9.6 84.8-22.4 124.8-35.2 44.8-12.8 84.8-32 129.6-40 22.4-9.6 49.6 9.6 52.8 35.2 9.6 22.4-3.2 44.8-30.4 57.6zM1022.4 160c-4.8-32-27.2-57.6-57.6-57.6-40-4.8-120 0-179.2 52.8l-9.6 9.6c-9.6-32-17.6-62.4-44.8-84.8C678.4 22.4 596.8 12.8 548.8 12.8c-32 0-62.4 27.2-62.4 62.4-4.8 49.6 0 137.6 49.6 196.8 44.8 49.6 107.2 57.6 152 57.6h22.4v224c0 27.2 17.6 44.8 44.8 44.8s44.8-17.6 44.8-44.8v-134.4c49.6-4.8 120-12.8 164.8-62.4 62.4-59.2 62.4-148.8 57.6-196.8z m-416 48c-17.6-22.4-27.2-57.6-27.2-107.2 27.2 4.8 67.2 12.8 89.6 35.2 22.4 27.2 27.2 67.2 27.2 94.4-30.4 4.8-67.2 0-89.6-22.4z m299.2 84.8c-22.4 22.4-62.4 32-97.6 35.2 4.8-40 17.6-80 44.8-102.4 22.4-27.2 57.6-35.2 84.8-35.2 0 32-4.8 76.8-32 102.4z"  /></svg>