<svg class="svg-icon" style="width: 1em;height: 1em;vertical-align: middle;fill: currentColor;overflow: hidden;" viewBox="0 0 1024 1024" version="1.1" xmlns="http://www.w3.org/2000/svg"><path d="M512 832c-61.76 0-112-57.44-112-128s50.24-128 112-128 112 57.44 112 128-50.24 128-112 128z m0-224c-44.16 0-80 43.04-80 96s35.84 96 80 96 80-43.04 80-96-35.84-96-80-96z"  /><path d="M880 960H144a73.12 73.12 0 0 1-21.44-3.04A80 80 0 0 1 64 880V528a80 80 0 0 1 80-80h320a32 32 0 0 0 32-32 16 16 0 0 1 32 0 32 32 0 0 0 32 32h320a72.8 72.8 0 0 1 21.28 3.04A80 80 0 0 1 960 528v352a80 80 0 0 1-80 80zM144 480a48 48 0 0 0-48 48v352a48 48 0 0 0 35.2 46.08A44.32 44.32 0 0 0 144 928h736a48 48 0 0 0 48-48V528a48 48 0 0 0-35.2-46.08A46.08 46.08 0 0 0 880 480H560a64 64 0 0 1-45.28-18.72l-2.72-3.04-2.72 3.04A64 64 0 0 1 464 480z m672 416H208a16 16 0 0 1-16-16 48 48 0 0 0-48-48 16 16 0 0 1-16-16V592a16 16 0 0 1 16-16 48 48 0 0 0 48-48 16 16 0 0 1 16-16h608a16 16 0 0 1 16 16 48 48 0 0 0 48 48 16 16 0 0 1 16 16v224a16 16 0 0 1-16 16 48 48 0 0 0-48 48 16 16 0 0 1-16 16z m-593.6-32h579.2a80 80 0 0 1 62.4-62.4V606.4a80 80 0 0 1-62.4-62.4H222.4a80 80 0 0 1-62.4 62.4v195.2a80 80 0 0 1 62.4 62.4z"  /><path d="M816 896H208a16 16 0 0 1-16-16 48 48 0 0 0-48-48 16 16 0 0 1-16-16V592a16 16 0 0 1 16-16 48 48 0 0 0 48-48 16 16 0 0 1 16-16h608a16 16 0 0 1 16 16 48 48 0 0 0 48 48 16 16 0 0 1 16 16v224a16 16 0 0 1-16 16 48 48 0 0 0-48 48 16 16 0 0 1-16 16z m-593.6-32h579.2a80 80 0 0 1 62.4-62.4V606.4a80 80 0 0 1-62.4-62.4H222.4a80 80 0 0 1-62.4 62.4v195.2a80 80 0 0 1 62.4 62.4zM512 269.76h-130.24A189.92 189.92 0 0 1 192 80a16 16 0 0 1 16-16h130.24A189.92 189.92 0 0 1 528 253.76a16 16 0 0 1-16 16zM224.8 96a157.92 157.92 0 0 0 156.96 141.76H496A157.92 157.92 0 0 0 338.24 96z"  /><path d="M640 304h-128a16 16 0 0 1-16-16A192 192 0 0 1 688 96h128a16 16 0 0 1 16 16 192 192 0 0 1-192 192z m-112-32h112a160 160 0 0 0 160-144h-112a160 160 0 0 0-159.2 144z"  /><path d="M512 432a16 16 0 0 1-16-16V224a16 16 0 0 1 32 0v192a16 16 0 0 1-16 16z"  /></svg>